# Tiled2Unity generated file. Do not modify by hand.
# Wavefront file for 'Tiled.labe_mesh_0001.obj'

# Vertices (Count = 48)
v -3.84 -2.56 0
v -5.12 -2.56 0
v -5.12 -1.28 0
v -3.84 -1.28 0
v -5.12 -2.56 0
v -6.4 -2.56 0
v -6.4 -1.28 0
v -5.12 -1.28 0
v 0 -3.84 0
v -1.28 -3.84 0
v -1.28 -2.56 0
v 0 -2.56 0
v -1.28 -3.84 0
v -2.56 -3.84 0
v -2.56 -2.56 0
v -1.28 -2.56 0
v -2.56 -3.84 0
v -3.84 -3.84 0
v -3.84 -2.56 0
v -2.56 -2.56 0
v -3.84 -3.84 0
v -5.12 -3.84 0
v -5.12 -2.56 0
v -3.84 -2.56 0
v -5.12 -3.84 0
v -6.4 -3.84 0
v -6.4 -2.56 0
v -5.12 -2.56 0
v -6.4 -3.84 0
v -7.68 -3.84 0
v -7.68 -2.56 0
v -6.4 -2.56 0
v -7.68 -3.84 0
v -8.96 -3.84 0
v -8.96 -2.56 0
v -7.68 -2.56 0
v -8.96 -3.84 0
v -10.24 -3.84 0
v -10.24 -2.56 0
v -8.96 -2.56 0
v -10.24 -3.84 0
v -11.52 -3.84 0
v -11.52 -2.56 0
v -10.24 -2.56 0
v -11.52 -3.84 0
v -12.8 -3.84 0
v -12.8 -2.56 0
v -11.52 -2.56 0

# Texture cooridinates (Count = 12)
vt 0.25 0.75
vt 0.5 0.75
vt 0.5 1
vt 0.25 1
vt 0 0.75
vt 0 1
vt 0.5 0.5
vt 0.75 0.5
vt 0.75 0.75
vt 0 0.5
vt 0.25 0.5
vt 0.75 1

# Normal
vn 0 0 -1

# Mesh description
g Tiled.labe_mesh_0001

# Faces
f 1/1/1 2/2/1 3/3/1 4/4/1
f 5/5/1 6/1/1 7/4/1 8/6/1
f 9/7/1 10/8/1 11/9/1 12/2/1
f 13/7/1 14/8/1 15/9/1 16/2/1
f 17/7/1 18/8/1 19/9/1 20/2/1
f 21/5/1 22/1/1 23/4/1 24/6/1
f 25/5/1 26/1/1 27/4/1 28/6/1
f 29/10/1 30/11/1 31/1/1 32/5/1
f 33/10/1 34/11/1 35/1/1 36/5/1
f 37/2/1 38/9/1 39/12/1 40/3/1
f 41/10/1 42/11/1 43/1/1 44/5/1
f 45/10/1 46/11/1 47/1/1 48/5/1

